<?xml version="1.0" encoding="UTF-8"?>
<!-- L.ai ecosystem map — Ł umbrella branching to Athena / Mana Core / LAI -->
<svg xmlns="http://www.w3.org/2000/svg" width="640" height="380" viewBox="0 0 640 380" font-family="ui-monospace, SFMono-Regular, Menlo, monospace">
  <defs>
    <linearGradient id="hat" x1="0" y1="0" x2="0" y2="1">
      <stop offset="0" stop-color="#7df9ff"/>
      <stop offset="1" stop-color="#b026ff"/>
    </linearGradient>
    <marker id="arrow" viewBox="0 0 10 10" refX="9" refY="5" markerWidth="7" markerHeight="7" orient="auto-start-reverse">
      <path d="M0 0 L10 5 L0 10 z" fill="#c2410c"/>
    </marker>
  </defs>

  <rect width="640" height="380" fill="#0a0a12"/>

  <!-- Ł glyph (top center) -->
  <g transform="translate(290,18)">
    <path d="M30 0 L46 26 L14 26 Z" fill="url(#hat)" stroke="#0ff" stroke-width="1"/>
    <path d="M8 28 Q30 23 52 28 L50 34 Q30 30 10 34 Z" fill="#b026ff"/>
    <rect x="22 36" width="14" height="22" fill="#0a0a12" stroke="#7df9ff" stroke-width="1.2"/>
    <rect x="22 46" width="30" height="12" fill="#0a0a12" stroke="#7df9ff" stroke-width="1.2"/>
    <line x1="14" y1="42" x2="46" y2="42" stroke="#7df9ff" stroke-width="1.2"/>
    <rect x="14" y="74" width="32" height="2.5" fill="#c2410c"/>
  </g>
  <text x="320" y="120" fill="#7df9ff" font-size="15" text-anchor="middle" font-weight="bold">Ł  —  L</text>
  <text x="320" y="138" fill="#c7c9d1" font-size="11" text-anchor="middle">creator identity / umbrella</text>

  <!-- branches -->
  <line x1="320" y1="150" x2="200" y2="200" stroke="#b026ff" stroke-width="2" marker-end="url(#arrow)"/>
  <line x1="320" y1="150" x2="440" y2="200" stroke="#b026ff" stroke-width="2" marker-end="url(#arrow)"/>

  <!-- Athena node -->
  <g transform="translate(120,200)">
    <rect width="160" height="70" rx="8" fill="#0a0a12" stroke="#7df9ff" stroke-width="1.5"/>
    <rect x="0" y="0" width="160" height="4" rx="2" fill="#c2410c"/>
    <text x="80" y="28" fill="#7df9ff" font-size="14" text-anchor="middle" font-weight="bold">Athena</text>
    <text x="80" y="46" fill="#c7c9d1" font-size="10" text-anchor="middle">the AI companion</text>
    <text x="80" y="60" fill="#b026ff" font-size="9" text-anchor="middle">relational reasoning</text>
  </g>

  <!-- Mana Core node -->
  <g transform="translate(360,200)">
    <rect width="160" height="70" rx="8" fill="#0a0a12" stroke="#7df9ff" stroke-width="1.5"/>
    <rect x="0" y="0" width="160" height="4" rx="2" fill="#c2410c"/>
    <text x="80" y="28" fill="#7df9ff" font-size="14" text-anchor="middle" font-weight="bold">Mana Core</text>
    <text x="80" y="46" fill="#c7c9d1" font-size="10" text-anchor="middle">the interactive world</text>
    <text x="80" y="60" fill="#b026ff" font-size="9" text-anchor="middle">simulation / runtime</text>
  </g>

  <!-- join to LAI -->
  <line x1="200" y1="270" x2="320" y2="310" stroke="#c2410c" stroke-width="2" marker-end="url(#arrow)"/>
  <line x1="440" y1="270" x2="320" y2="310" stroke="#c2410c" stroke-width="2" marker-end="url(#arrow)"/>

  <!-- LAI node -->
  <g transform="translate(220,310)">
    <rect width="200" height="56" rx="8" fill="#0a0a12" stroke="#b026ff" stroke-width="2"/>
    <rect x="0" y="0" width="200" height="4" rx="2" fill="#c2410c"/>
    <text x="100" y="26" fill="#7df9ff" font-size="14" text-anchor="middle" font-weight="bold">LAI</text>
    <text x="100" y="44" fill="#c7c9d1" font-size="9.5" text-anchor="middle">offline verification substrate</text>
  </g>

  <text x="320" y="372" fill="#ff2bd6" font-size="9" text-anchor="middle" opacity="0.8">Proof · Gate · Bridge · Compute</text>
</svg>
